<?xml version="1.0" encoding="utf-8" standalone="no"?>
<!DOCTYPE svg PUBLIC "-//W3C//DTD SVG 1.1//EN"
  "http://www.w3.org/Graphics/SVG/1.1/DTD/svg11.dtd">
<!-- Created with matplotlib (http://matplotlib.org/) -->
<svg height="216pt" version="1.1" viewBox="0 0 720 216" width="720pt" xmlns="http://www.w3.org/2000/svg" xmlns:xlink="http://www.w3.org/1999/xlink">
 <defs>
  <style type="text/css">
*{stroke-linecap:butt;stroke-linejoin:round;}
  </style>
 </defs>
 <g id="figure_1">
  <g id="patch_1">
   <path d="M 0 216 
L 720 216 
L 720 0 
L 0 0 
z
" style="fill:#ffffff;"/>
  </g>
  <g id="axes_1">
   <g id="patch_2">
    <path d="M 33.64 82.675 
L 706.68 82.675 
L 706.68 14.76 
L 33.64 14.76 
z
" style="fill:#ffffff;"/>
   </g>
   <g id="PatchCollection_1">
    <path clip-path="url(#pee872f5415)" d="M 33.64 82.675 
L 47.1008 82.675 
L 47.1008 14.76 
L 33.64 14.76 
z
" style="fill:#b1a1e6;"/>
    <path clip-path="url(#pee872f5415)" d="M 47.1008 82.675 
L 60.5616 82.675 
L 60.5616 14.76 
L 47.1008 14.76 
z
" style="fill:#b1a1e6;"/>
    <path clip-path="url(#pee872f5415)" d="M 60.5616 82.675 
L 74.0224 82.675 
L 74.0224 14.76 
L 60.5616 14.76 
z
" style="fill:#b1a1e6;"/>
    <path clip-path="url(#pee872f5415)" d="M 74.0224 82.675 
L 87.4832 82.675 
L 87.4832 14.76 
L 74.0224 14.76 
z
" style="fill:#b1a1e6;"/>
    <path clip-path="url(#pee872f5415)" d="M 87.4832 82.675 
L 100.944 82.675 
L 100.944 14.76 
L 87.4832 14.76 
z
" style="fill:#b1a1e6;"/>
    <path clip-path="url(#pee872f5415)" d="M 100.944 82.675 
L 114.4048 82.675 
L 114.4048 14.76 
L 100.944 14.76 
z
" style="fill:#b1a1e6;"/>
    <path clip-path="url(#pee872f5415)" d="M 114.4048 82.675 
L 127.8656 82.675 
L 127.8656 14.76 
L 114.4048 14.76 
z
" style="fill:#b1a1e6;"/>
    <path clip-path="url(#pee872f5415)" d="M 127.8656 82.675 
L 141.3264 82.675 
L 141.3264 14.76 
L 127.8656 14.76 
z
" style="fill:#b1a1e6;"/>
    <path clip-path="url(#pee872f5415)" d="M 141.3264 82.675 
L 154.7872 82.675 
L 154.7872 14.76 
L 141.3264 14.76 
z
" style="fill:#b3cdd0;"/>
    <path clip-path="url(#pee872f5415)" d="M 154.7872 82.675 
L 168.248 82.675 
L 168.248 14.76 
L 154.7872 14.76 
z
" style="fill:#b3cdd0;"/>
    <path clip-path="url(#pee872f5415)" d="M 168.248 82.675 
L 181.7088 82.675 
L 181.7088 14.76 
L 168.248 14.76 
z
" style="fill:#b3cdd0;"/>
    <path clip-path="url(#pee872f5415)" d="M 181.7088 82.675 
L 195.1696 82.675 
L 195.1696 14.76 
L 181.7088 14.76 
z
" style="fill:#b3cdd0;"/>
    <path clip-path="url(#pee872f5415)" d="M 195.1696 82.675 
L 208.6304 82.675 
L 208.6304 14.76 
L 195.1696 14.76 
z
" style="fill:#b3cdd0;"/>
    <path clip-path="url(#pee872f5415)" d="M 208.6304 82.675 
L 222.0912 82.675 
L 222.0912 14.76 
L 208.6304 14.76 
z
" style="fill:#b3cdd0;"/>
    <path clip-path="url(#pee872f5415)" d="M 222.0912 82.675 
L 235.552 82.675 
L 235.552 14.76 
L 222.0912 14.76 
z
" style="fill:#b3cdd0;"/>
    <path clip-path="url(#pee872f5415)" d="M 235.552 82.675 
L 249.0128 82.675 
L 249.0128 14.76 
L 235.552 14.76 
z
" style="fill:#be8481;"/>
    <path clip-path="url(#pee872f5415)" d="M 249.0128 82.675 
L 262.4736 82.675 
L 262.4736 14.76 
L 249.0128 14.76 
z
" style="fill:#be8481;"/>
    <path clip-path="url(#pee872f5415)" d="M 262.4736 82.675 
L 275.9344 82.675 
L 275.9344 14.76 
L 262.4736 14.76 
z
" style="fill:#be8481;"/>
    <path clip-path="url(#pee872f5415)" d="M 275.9344 82.675 
L 289.3952 82.675 
L 289.3952 14.76 
L 275.9344 14.76 
z
" style="fill:#be8481;"/>
    <path clip-path="url(#pee872f5415)" d="M 289.3952 82.675 
L 302.856 82.675 
L 302.856 14.76 
L 289.3952 14.76 
z
" style="fill:#be8481;"/>
    <path clip-path="url(#pee872f5415)" d="M 302.856 82.675 
L 316.3168 82.675 
L 316.3168 14.76 
L 302.856 14.76 
z
" style="fill:#be8481;"/>
    <path clip-path="url(#pee872f5415)" d="M 316.3168 82.675 
L 329.7776 82.675 
L 329.7776 14.76 
L 316.3168 14.76 
z
" style="fill:#d88baf;"/>
    <path clip-path="url(#pee872f5415)" d="M 329.7776 82.675 
L 343.2384 82.675 
L 343.2384 14.76 
L 329.7776 14.76 
z
" style="fill:#d88baf;"/>
    <path clip-path="url(#pee872f5415)" d="M 343.2384 82.675 
L 356.6992 82.675 
L 356.6992 14.76 
L 343.2384 14.76 
z
" style="fill:#9df1b8;"/>
   </g>
   <g id="matplotlib.axis_1">
    <g id="xtick_1">
     <g id="line2d_1">
      <defs>
       <path d="M 0 0 
L 0 3.5 
" id="ma8dad8fe57" style="stroke:#000000;stroke-width:0.8;"/>
      </defs>
      <g>
       <use style="stroke:#000000;stroke-width:0.8;" x="40.3704" xlink:href="#ma8dad8fe57" y="82.675"/>
      </g>
     </g>
     <g id="text_1">
      <!-- uid_77450 -->
      <defs>
       <path d="M 8.5 21.578125 
L 8.5 54.6875 
L 17.484375 54.6875 
L 17.484375 21.921875 
Q 17.484375 14.15625 20.5 10.265625 
Q 23.53125 6.390625 29.59375 6.390625 
Q 36.859375 6.390625 41.078125 11.03125 
Q 45.3125 15.671875 45.3125 23.6875 
L 45.3125 54.6875 
L 54.296875 54.6875 
L 54.296875 0 
L 45.3125 0 
L 45.3125 8.40625 
Q 42.046875 3.421875 37.71875 1 
Q 33.40625 -1.421875 27.6875 -1.421875 
Q 18.265625 -1.421875 13.375 4.4375 
Q 8.5 10.296875 8.5 21.578125 
z
M 31.109375 56 
z
" id="DejaVuSans-75"/>
       <path d="M 9.421875 54.6875 
L 18.40625 54.6875 
L 18.40625 0 
L 9.421875 0 
z
M 9.421875 75.984375 
L 18.40625 75.984375 
L 18.40625 64.59375 
L 9.421875 64.59375 
z
" id="DejaVuSans-69"/>
       <path d="M 45.40625 46.390625 
L 45.40625 75.984375 
L 54.390625 75.984375 
L 54.390625 0 
L 45.40625 0 
L 45.40625 8.203125 
Q 42.578125 3.328125 38.25 0.953125 
Q 33.9375 -1.421875 27.875 -1.421875 
Q 17.96875 -1.421875 11.734375 6.484375 
Q 5.515625 14.40625 5.515625 27.296875 
Q 5.515625 40.1875 11.734375 48.09375 
Q 17.96875 56 27.875 56 
Q 33.9375 56 38.25 53.625 
Q 42.578125 51.265625 45.40625 46.390625 
z
M 14.796875 27.296875 
Q 14.796875 17.390625 18.875 11.75 
Q 22.953125 6.109375 30.078125 6.109375 
Q 37.203125 6.109375 41.296875 11.75 
Q 45.40625 17.390625 45.40625 27.296875 
Q 45.40625 37.203125 41.296875 42.84375 
Q 37.203125 48.484375 30.078125 48.484375 
Q 22.953125 48.484375 18.875 42.84375 
Q 14.796875 37.203125 14.796875 27.296875 
z
" id="DejaVuSans-64"/>
       <path d="M 50.984375 -16.609375 
L 50.984375 -23.578125 
L -0.984375 -23.578125 
L -0.984375 -16.609375 
z
" id="DejaVuSans-5f"/>
       <path d="M 8.203125 72.90625 
L 55.078125 72.90625 
L 55.078125 68.703125 
L 28.609375 0 
L 18.3125 0 
L 43.21875 64.59375 
L 8.203125 64.59375 
z
" id="DejaVuSans-37"/>
       <path d="M 37.796875 64.3125 
L 12.890625 25.390625 
L 37.796875 25.390625 
z
M 35.203125 72.90625 
L 47.609375 72.90625 
L 47.609375 25.390625 
L 58.015625 25.390625 
L 58.015625 17.1875 
L 47.609375 17.1875 
L 47.609375 0 
L 37.796875 0 
L 37.796875 17.1875 
L 4.890625 17.1875 
L 4.890625 26.703125 
z
" id="DejaVuSans-34"/>
       <path d="M 10.796875 72.90625 
L 49.515625 72.90625 
L 49.515625 64.59375 
L 19.828125 64.59375 
L 19.828125 46.734375 
Q 21.96875 47.46875 24.109375 47.828125 
Q 26.265625 48.1875 28.421875 48.1875 
Q 40.625 48.1875 47.75 41.5 
Q 54.890625 34.8125 54.890625 23.390625 
Q 54.890625 11.625 47.5625 5.09375 
Q 40.234375 -1.421875 26.90625 -1.421875 
Q 22.3125 -1.421875 17.546875 -0.640625 
Q 12.796875 0.140625 7.71875 1.703125 
L 7.71875 11.625 
Q 12.109375 9.234375 16.796875 8.0625 
Q 21.484375 6.890625 26.703125 6.890625 
Q 35.15625 6.890625 40.078125 11.328125 
Q 45.015625 15.765625 45.015625 23.390625 
Q 45.015625 31 40.078125 35.4375 
Q 35.15625 39.890625 26.703125 39.890625 
Q 22.75 39.890625 18.8125 39.015625 
Q 14.890625 38.140625 10.796875 36.28125 
z
" id="DejaVuSans-35"/>
       <path d="M 31.78125 66.40625 
Q 24.171875 66.40625 20.328125 58.90625 
Q 16.5 51.421875 16.5 36.375 
Q 16.5 21.390625 20.328125 13.890625 
Q 24.171875 6.390625 31.78125 6.390625 
Q 39.453125 6.390625 43.28125 13.890625 
Q 47.125 21.390625 47.125 36.375 
Q 47.125 51.421875 43.28125 58.90625 
Q 39.453125 66.40625 31.78125 66.40625 
z
M 31.78125 74.21875 
Q 44.046875 74.21875 50.515625 64.515625 
Q 56.984375 54.828125 56.984375 36.375 
Q 56.984375 17.96875 50.515625 8.265625 
Q 44.046875 -1.421875 31.78125 -1.421875 
Q 19.53125 -1.421875 13.0625 8.265625 
Q 6.59375 17.96875 6.59375 36.375 
Q 6.59375 54.828125 13.0625 64.515625 
Q 19.53125 74.21875 31.78125 74.21875 
z
" id="DejaVuSans-30"/>
      </defs>
      <g transform="translate(41.942588 121.040938)rotate(-90)scale(0.06 -0.06)">
       <use xlink:href="#DejaVuSans-75"/>
       <use x="63.378906" xlink:href="#DejaVuSans-69"/>
       <use x="91.162109" xlink:href="#DejaVuSans-64"/>
       <use x="154.638672" xlink:href="#DejaVuSans-5f"/>
       <use x="204.638672" xlink:href="#DejaVuSans-37"/>
       <use x="268.261719" xlink:href="#DejaVuSans-37"/>
       <use x="331.884766" xlink:href="#DejaVuSans-34"/>
       <use x="395.507812" xlink:href="#DejaVuSans-35"/>
       <use x="459.130859" xlink:href="#DejaVuSans-30"/>
      </g>
     </g>
    </g>
    <g id="xtick_2">
     <g id="line2d_2">
      <g>
       <use style="stroke:#000000;stroke-width:0.8;" x="53.8312" xlink:href="#ma8dad8fe57" y="82.675"/>
      </g>
     </g>
     <g id="text_2">
      <!-- uid_77452 -->
      <defs>
       <path d="M 19.1875 8.296875 
L 53.609375 8.296875 
L 53.609375 0 
L 7.328125 0 
L 7.328125 8.296875 
Q 12.9375 14.109375 22.625 23.890625 
Q 32.328125 33.6875 34.8125 36.53125 
Q 39.546875 41.84375 41.421875 45.53125 
Q 43.3125 49.21875 43.3125 52.78125 
Q 43.3125 58.59375 39.234375 62.25 
Q 35.15625 65.921875 28.609375 65.921875 
Q 23.96875 65.921875 18.8125 64.3125 
Q 13.671875 62.703125 7.8125 59.421875 
L 7.8125 69.390625 
Q 13.765625 71.78125 18.9375 73 
Q 24.125 74.21875 28.421875 74.21875 
Q 39.75 74.21875 46.484375 68.546875 
Q 53.21875 62.890625 53.21875 53.421875 
Q 53.21875 48.921875 51.53125 44.890625 
Q 49.859375 40.875 45.40625 35.40625 
Q 44.1875 33.984375 37.640625 27.21875 
Q 31.109375 20.453125 19.1875 8.296875 
z
" id="DejaVuSans-32"/>
      </defs>
      <g transform="translate(55.403388 121.040938)rotate(-90)scale(0.06 -0.06)">
       <use xlink:href="#DejaVuSans-75"/>
       <use x="63.378906" xlink:href="#DejaVuSans-69"/>
       <use x="91.162109" xlink:href="#DejaVuSans-64"/>
       <use x="154.638672" xlink:href="#DejaVuSans-5f"/>
       <use x="204.638672" xlink:href="#DejaVuSans-37"/>
       <use x="268.261719" xlink:href="#DejaVuSans-37"/>
       <use x="331.884766" xlink:href="#DejaVuSans-34"/>
       <use x="395.507812" xlink:href="#DejaVuSans-35"/>
       <use x="459.130859" xlink:href="#DejaVuSans-32"/>
      </g>
     </g>
    </g>
    <g id="xtick_3">
     <g id="line2d_3">
      <g>
       <use style="stroke:#000000;stroke-width:0.8;" x="67.292" xlink:href="#ma8dad8fe57" y="82.675"/>
      </g>
     </g>
     <g id="text_3">
      <!-- uid_77439 -->
      <defs>
       <path d="M 40.578125 39.3125 
Q 47.65625 37.796875 51.625 33 
Q 55.609375 28.21875 55.609375 21.1875 
Q 55.609375 10.40625 48.1875 4.484375 
Q 40.765625 -1.421875 27.09375 -1.421875 
Q 22.515625 -1.421875 17.65625 -0.515625 
Q 12.796875 0.390625 7.625 2.203125 
L 7.625 11.71875 
Q 11.71875 9.328125 16.59375 8.109375 
Q 21.484375 6.890625 26.8125 6.890625 
Q 36.078125 6.890625 40.9375 10.546875 
Q 45.796875 14.203125 45.796875 21.1875 
Q 45.796875 27.640625 41.28125 31.265625 
Q 36.765625 34.90625 28.71875 34.90625 
L 20.21875 34.90625 
L 20.21875 43.015625 
L 29.109375 43.015625 
Q 36.375 43.015625 40.234375 45.921875 
Q 44.09375 48.828125 44.09375 54.296875 
Q 44.09375 59.90625 40.109375 62.90625 
Q 36.140625 65.921875 28.71875 65.921875 
Q 24.65625 65.921875 20.015625 65.03125 
Q 15.375 64.15625 9.8125 62.3125 
L 9.8125 71.09375 
Q 15.4375 72.65625 20.34375 73.4375 
Q 25.25 74.21875 29.59375 74.21875 
Q 40.828125 74.21875 47.359375 69.109375 
Q 53.90625 64.015625 53.90625 55.328125 
Q 53.90625 49.265625 50.4375 45.09375 
Q 46.96875 40.921875 40.578125 39.3125 
z
" id="DejaVuSans-33"/>
       <path d="M 10.984375 1.515625 
L 10.984375 10.5 
Q 14.703125 8.734375 18.5 7.8125 
Q 22.3125 6.890625 25.984375 6.890625 
Q 35.75 6.890625 40.890625 13.453125 
Q 46.046875 20.015625 46.78125 33.40625 
Q 43.953125 29.203125 39.59375 26.953125 
Q 35.25 24.703125 29.984375 24.703125 
Q 19.046875 24.703125 12.671875 31.3125 
Q 6.296875 37.9375 6.296875 49.421875 
Q 6.296875 60.640625 12.9375 67.421875 
Q 19.578125 74.21875 30.609375 74.21875 
Q 43.265625 74.21875 49.921875 64.515625 
Q 56.59375 54.828125 56.59375 36.375 
Q 56.59375 19.140625 48.40625 8.859375 
Q 40.234375 -1.421875 26.421875 -1.421875 
Q 22.703125 -1.421875 18.890625 -0.6875 
Q 15.09375 0.046875 10.984375 1.515625 
z
M 30.609375 32.421875 
Q 37.25 32.421875 41.125 36.953125 
Q 45.015625 41.5 45.015625 49.421875 
Q 45.015625 57.28125 41.125 61.84375 
Q 37.25 66.40625 30.609375 66.40625 
Q 23.96875 66.40625 20.09375 61.84375 
Q 16.21875 57.28125 16.21875 49.421875 
Q 16.21875 41.5 20.09375 36.953125 
Q 23.96875 32.421875 30.609375 32.421875 
z
" id="DejaVuSans-39"/>
      </defs>
      <g transform="translate(68.864187 121.040938)rotate(-90)scale(0.06 -0.06)">
       <use xlink:href="#DejaVuSans-75"/>
       <use x="63.378906" xlink:href="#DejaVuSans-69"/>
       <use x="91.162109" xlink:href="#DejaVuSans-64"/>
       <use x="154.638672" xlink:href="#DejaVuSans-5f"/>
       <use x="204.638672" xlink:href="#DejaVuSans-37"/>
       <use x="268.261719" xlink:href="#DejaVuSans-37"/>
       <use x="331.884766" xlink:href="#DejaVuSans-34"/>
       <use x="395.507812" xlink:href="#DejaVuSans-33"/>
       <use x="459.130859" xlink:href="#DejaVuSans-39"/>
      </g>
     </g>
    </g>
    <g id="xtick_4">
     <g id="line2d_4">
      <g>
       <use style="stroke:#000000;stroke-width:0.8;" x="80.7528" xlink:href="#ma8dad8fe57" y="82.675"/>
      </g>
     </g>
     <g id="text_4">
      <!-- uid_77440 -->
      <g transform="translate(82.324988 121.040938)rotate(-90)scale(0.06 -0.06)">
       <use xlink:href="#DejaVuSans-75"/>
       <use x="63.378906" xlink:href="#DejaVuSans-69"/>
       <use x="91.162109" xlink:href="#DejaVuSans-64"/>
       <use x="154.638672" xlink:href="#DejaVuSans-5f"/>
       <use x="204.638672" xlink:href="#DejaVuSans-37"/>
       <use x="268.261719" xlink:href="#DejaVuSans-37"/>
       <use x="331.884766" xlink:href="#DejaVuSans-34"/>
       <use x="395.507812" xlink:href="#DejaVuSans-34"/>
       <use x="459.130859" xlink:href="#DejaVuSans-30"/>
      </g>
     </g>
    </g>
    <g id="xtick_5">
     <g id="line2d_5">
      <g>
       <use style="stroke:#000000;stroke-width:0.8;" x="94.2136" xlink:href="#ma8dad8fe57" y="82.675"/>
      </g>
     </g>
     <g id="text_5">
      <!-- uid_77438 -->
      <defs>
       <path d="M 31.78125 34.625 
Q 24.75 34.625 20.71875 30.859375 
Q 16.703125 27.09375 16.703125 20.515625 
Q 16.703125 13.921875 20.71875 10.15625 
Q 24.75 6.390625 31.78125 6.390625 
Q 38.8125 6.390625 42.859375 10.171875 
Q 46.921875 13.96875 46.921875 20.515625 
Q 46.921875 27.09375 42.890625 30.859375 
Q 38.875 34.625 31.78125 34.625 
z
M 21.921875 38.8125 
Q 15.578125 40.375 12.03125 44.71875 
Q 8.5 49.078125 8.5 55.328125 
Q 8.5 64.0625 14.71875 69.140625 
Q 20.953125 74.21875 31.78125 74.21875 
Q 42.671875 74.21875 48.875 69.140625 
Q 55.078125 64.0625 55.078125 55.328125 
Q 55.078125 49.078125 51.53125 44.71875 
Q 48 40.375 41.703125 38.8125 
Q 48.828125 37.15625 52.796875 32.3125 
Q 56.78125 27.484375 56.78125 20.515625 
Q 56.78125 9.90625 50.3125 4.234375 
Q 43.84375 -1.421875 31.78125 -1.421875 
Q 19.734375 -1.421875 13.25 4.234375 
Q 6.78125 9.90625 6.78125 20.515625 
Q 6.78125 27.484375 10.78125 32.3125 
Q 14.796875 37.15625 21.921875 38.8125 
z
M 18.3125 54.390625 
Q 18.3125 48.734375 21.84375 45.5625 
Q 25.390625 42.390625 31.78125 42.390625 
Q 38.140625 42.390625 41.71875 45.5625 
Q 45.3125 48.734375 45.3125 54.390625 
Q 45.3125 60.0625 41.71875 63.234375 
Q 38.140625 66.40625 31.78125 66.40625 
Q 25.390625 66.40625 21.84375 63.234375 
Q 18.3125 60.0625 18.3125 54.390625 
z
" id="DejaVuSans-38"/>
      </defs>
      <g transform="translate(95.785788 121.040938)rotate(-90)scale(0.06 -0.06)">
       <use xlink:href="#DejaVuSans-75"/>
       <use x="63.378906" xlink:href="#DejaVuSans-69"/>
       <use x="91.162109" xlink:href="#DejaVuSans-64"/>
       <use x="154.638672" xlink:href="#DejaVuSans-5f"/>
       <use x="204.638672" xlink:href="#DejaVuSans-37"/>
       <use x="268.261719" xlink:href="#DejaVuSans-37"/>
       <use x="331.884766" xlink:href="#DejaVuSans-34"/>
       <use x="395.507812" xlink:href="#DejaVuSans-33"/>
       <use x="459.130859" xlink:href="#DejaVuSans-38"/>
      </g>
     </g>
    </g>
    <g id="xtick_6">
     <g id="line2d_6">
      <g>
       <use style="stroke:#000000;stroke-width:0.8;" x="107.6744" xlink:href="#ma8dad8fe57" y="82.675"/>
      </g>
     </g>
     <g id="text_6">
      <!-- uid_77449 -->
      <g transform="translate(109.246588 121.040938)rotate(-90)scale(0.06 -0.06)">
       <use xlink:href="#DejaVuSans-75"/>
       <use x="63.378906" xlink:href="#DejaVuSans-69"/>
       <use x="91.162109" xlink:href="#DejaVuSans-64"/>
       <use x="154.638672" xlink:href="#DejaVuSans-5f"/>
       <use x="204.638672" xlink:href="#DejaVuSans-37"/>
       <use x="268.261719" xlink:href="#DejaVuSans-37"/>
       <use x="331.884766" xlink:href="#DejaVuSans-34"/>
       <use x="395.507812" xlink:href="#DejaVuSans-34"/>
       <use x="459.130859" xlink:href="#DejaVuSans-39"/>
      </g>
     </g>
    </g>
    <g id="xtick_7">
     <g id="line2d_7">
      <g>
       <use style="stroke:#000000;stroke-width:0.8;" x="121.1352" xlink:href="#ma8dad8fe57" y="82.675"/>
      </g>
     </g>
     <g id="text_7">
      <!-- uid_77451 -->
      <defs>
       <path d="M 12.40625 8.296875 
L 28.515625 8.296875 
L 28.515625 63.921875 
L 10.984375 60.40625 
L 10.984375 69.390625 
L 28.421875 72.90625 
L 38.28125 72.90625 
L 38.28125 8.296875 
L 54.390625 8.296875 
L 54.390625 0 
L 12.40625 0 
z
" id="DejaVuSans-31"/>
      </defs>
      <g transform="translate(122.707388 121.040938)rotate(-90)scale(0.06 -0.06)">
       <use xlink:href="#DejaVuSans-75"/>
       <use x="63.378906" xlink:href="#DejaVuSans-69"/>
       <use x="91.162109" xlink:href="#DejaVuSans-64"/>
       <use x="154.638672" xlink:href="#DejaVuSans-5f"/>
       <use x="204.638672" xlink:href="#DejaVuSans-37"/>
       <use x="268.261719" xlink:href="#DejaVuSans-37"/>
       <use x="331.884766" xlink:href="#DejaVuSans-34"/>
       <use x="395.507812" xlink:href="#DejaVuSans-35"/>
       <use x="459.130859" xlink:href="#DejaVuSans-31"/>
      </g>
     </g>
    </g>
    <g id="xtick_8">
     <g id="line2d_8">
      <g>
       <use style="stroke:#000000;stroke-width:0.8;" x="134.596" xlink:href="#ma8dad8fe57" y="82.675"/>
      </g>
     </g>
     <g id="text_8">
      <!-- uid_77437 -->
      <g transform="translate(136.168188 121.040938)rotate(-90)scale(0.06 -0.06)">
       <use xlink:href="#DejaVuSans-75"/>
       <use x="63.378906" xlink:href="#DejaVuSans-69"/>
       <use x="91.162109" xlink:href="#DejaVuSans-64"/>
       <use x="154.638672" xlink:href="#DejaVuSans-5f"/>
       <use x="204.638672" xlink:href="#DejaVuSans-37"/>
       <use x="268.261719" xlink:href="#DejaVuSans-37"/>
       <use x="331.884766" xlink:href="#DejaVuSans-34"/>
       <use x="395.507812" xlink:href="#DejaVuSans-33"/>
       <use x="459.130859" xlink:href="#DejaVuSans-37"/>
      </g>
     </g>
    </g>
    <g id="xtick_9">
     <g id="line2d_9">
      <g>
       <use style="stroke:#000000;stroke-width:0.8;" x="148.0568" xlink:href="#ma8dad8fe57" y="82.675"/>
      </g>
     </g>
     <g id="text_9">
      <!-- uid_77442 -->
      <g transform="translate(149.628988 121.040938)rotate(-90)scale(0.06 -0.06)">
       <use xlink:href="#DejaVuSans-75"/>
       <use x="63.378906" xlink:href="#DejaVuSans-69"/>
       <use x="91.162109" xlink:href="#DejaVuSans-64"/>
       <use x="154.638672" xlink:href="#DejaVuSans-5f"/>
       <use x="204.638672" xlink:href="#DejaVuSans-37"/>
       <use x="268.261719" xlink:href="#DejaVuSans-37"/>
       <use x="331.884766" xlink:href="#DejaVuSans-34"/>
       <use x="395.507812" xlink:href="#DejaVuSans-34"/>
       <use x="459.130859" xlink:href="#DejaVuSans-32"/>
      </g>
     </g>
    </g>
    <g id="xtick_10">
     <g id="line2d_10">
      <g>
       <use style="stroke:#000000;stroke-width:0.8;" x="161.5176" xlink:href="#ma8dad8fe57" y="82.675"/>
      </g>
     </g>
     <g id="text_10">
      <!-- uid_77453 -->
      <g transform="translate(163.089788 121.040938)rotate(-90)scale(0.06 -0.06)">
       <use xlink:href="#DejaVuSans-75"/>
       <use x="63.378906" xlink:href="#DejaVuSans-69"/>
       <use x="91.162109" xlink:href="#DejaVuSans-64"/>
       <use x="154.638672" xlink:href="#DejaVuSans-5f"/>
       <use x="204.638672" xlink:href="#DejaVuSans-37"/>
       <use x="268.261719" xlink:href="#DejaVuSans-37"/>
       <use x="331.884766" xlink:href="#DejaVuSans-34"/>
       <use x="395.507812" xlink:href="#DejaVuSans-35"/>
       <use x="459.130859" xlink:href="#DejaVuSans-33"/>
      </g>
     </g>
    </g>
    <g id="xtick_11">
     <g id="line2d_11">
      <g>
       <use style="stroke:#000000;stroke-width:0.8;" x="174.9784" xlink:href="#ma8dad8fe57" y="82.675"/>
      </g>
     </g>
     <g id="text_11">
      <!-- uid_77444 -->
      <g transform="translate(176.550588 121.040938)rotate(-90)scale(0.06 -0.06)">
       <use xlink:href="#DejaVuSans-75"/>
       <use x="63.378906" xlink:href="#DejaVuSans-69"/>
       <use x="91.162109" xlink:href="#DejaVuSans-64"/>
       <use x="154.638672" xlink:href="#DejaVuSans-5f"/>
       <use x="204.638672" xlink:href="#DejaVuSans-37"/>
       <use x="268.261719" xlink:href="#DejaVuSans-37"/>
       <use x="331.884766" xlink:href="#DejaVuSans-34"/>
       <use x="395.507812" xlink:href="#DejaVuSans-34"/>
       <use x="459.130859" xlink:href="#DejaVuSans-34"/>
      </g>
     </g>
    </g>
    <g id="xtick_12">
     <g id="line2d_12">
      <g>
       <use style="stroke:#000000;stroke-width:0.8;" x="188.4392" xlink:href="#ma8dad8fe57" y="82.675"/>
      </g>
     </g>
     <g id="text_12">
      <!-- uid_77454 -->
      <g transform="translate(190.011388 121.040938)rotate(-90)scale(0.06 -0.06)">
       <use xlink:href="#DejaVuSans-75"/>
       <use x="63.378906" xlink:href="#DejaVuSans-69"/>
       <use x="91.162109" xlink:href="#DejaVuSans-64"/>
       <use x="154.638672" xlink:href="#DejaVuSans-5f"/>
       <use x="204.638672" xlink:href="#DejaVuSans-37"/>
       <use x="268.261719" xlink:href="#DejaVuSans-37"/>
       <use x="331.884766" xlink:href="#DejaVuSans-34"/>
       <use x="395.507812" xlink:href="#DejaVuSans-35"/>
       <use x="459.130859" xlink:href="#DejaVuSans-34"/>
      </g>
     </g>
    </g>
    <g id="xtick_13">
     <g id="line2d_13">
      <g>
       <use style="stroke:#000000;stroke-width:0.8;" x="201.9" xlink:href="#ma8dad8fe57" y="82.675"/>
      </g>
     </g>
     <g id="text_13">
      <!-- uid_77441 -->
      <g transform="translate(203.472188 121.040938)rotate(-90)scale(0.06 -0.06)">
       <use xlink:href="#DejaVuSans-75"/>
       <use x="63.378906" xlink:href="#DejaVuSans-69"/>
       <use x="91.162109" xlink:href="#DejaVuSans-64"/>
       <use x="154.638672" xlink:href="#DejaVuSans-5f"/>
       <use x="204.638672" xlink:href="#DejaVuSans-37"/>
       <use x="268.261719" xlink:href="#DejaVuSans-37"/>
       <use x="331.884766" xlink:href="#DejaVuSans-34"/>
       <use x="395.507812" xlink:href="#DejaVuSans-34"/>
       <use x="459.130859" xlink:href="#DejaVuSans-31"/>
      </g>
     </g>
    </g>
    <g id="xtick_14">
     <g id="line2d_14">
      <g>
       <use style="stroke:#000000;stroke-width:0.8;" x="215.3608" xlink:href="#ma8dad8fe57" y="82.675"/>
      </g>
     </g>
     <g id="text_14">
      <!-- uid_77455 -->
      <g transform="translate(216.932988 121.040938)rotate(-90)scale(0.06 -0.06)">
       <use xlink:href="#DejaVuSans-75"/>
       <use x="63.378906" xlink:href="#DejaVuSans-69"/>
       <use x="91.162109" xlink:href="#DejaVuSans-64"/>
       <use x="154.638672" xlink:href="#DejaVuSans-5f"/>
       <use x="204.638672" xlink:href="#DejaVuSans-37"/>
       <use x="268.261719" xlink:href="#DejaVuSans-37"/>
       <use x="331.884766" xlink:href="#DejaVuSans-34"/>
       <use x="395.507812" xlink:href="#DejaVuSans-35"/>
       <use x="459.130859" xlink:href="#DejaVuSans-35"/>
      </g>
     </g>
    </g>
    <g id="xtick_15">
     <g id="line2d_15">
      <g>
       <use style="stroke:#000000;stroke-width:0.8;" x="228.8216" xlink:href="#ma8dad8fe57" y="82.675"/>
      </g>
     </g>
     <g id="text_15">
      <!-- uid_77443 -->
      <g transform="translate(230.393788 121.040938)rotate(-90)scale(0.06 -0.06)">
       <use xlink:href="#DejaVuSans-75"/>
       <use x="63.378906" xlink:href="#DejaVuSans-69"/>
       <use x="91.162109" xlink:href="#DejaVuSans-64"/>
       <use x="154.638672" xlink:href="#DejaVuSans-5f"/>
       <use x="204.638672" xlink:href="#DejaVuSans-37"/>
       <use x="268.261719" xlink:href="#DejaVuSans-37"/>
       <use x="331.884766" xlink:href="#DejaVuSans-34"/>
       <use x="395.507812" xlink:href="#DejaVuSans-34"/>
       <use x="459.130859" xlink:href="#DejaVuSans-33"/>
      </g>
     </g>
    </g>
    <g id="xtick_16">
     <g id="line2d_16">
      <g>
       <use style="stroke:#000000;stroke-width:0.8;" x="242.2824" xlink:href="#ma8dad8fe57" y="82.675"/>
      </g>
     </g>
     <g id="text_16">
      <!-- uid_77445 -->
      <g transform="translate(243.854588 121.040938)rotate(-90)scale(0.06 -0.06)">
       <use xlink:href="#DejaVuSans-75"/>
       <use x="63.378906" xlink:href="#DejaVuSans-69"/>
       <use x="91.162109" xlink:href="#DejaVuSans-64"/>
       <use x="154.638672" xlink:href="#DejaVuSans-5f"/>
       <use x="204.638672" xlink:href="#DejaVuSans-37"/>
       <use x="268.261719" xlink:href="#DejaVuSans-37"/>
       <use x="331.884766" xlink:href="#DejaVuSans-34"/>
       <use x="395.507812" xlink:href="#DejaVuSans-34"/>
       <use x="459.130859" xlink:href="#DejaVuSans-35"/>
      </g>
     </g>
    </g>
    <g id="xtick_17">
     <g id="line2d_17">
      <g>
       <use style="stroke:#000000;stroke-width:0.8;" x="255.7432" xlink:href="#ma8dad8fe57" y="82.675"/>
      </g>
     </g>
     <g id="text_17">
      <!-- uid_77448 -->
      <g transform="translate(257.315388 121.040938)rotate(-90)scale(0.06 -0.06)">
       <use xlink:href="#DejaVuSans-75"/>
       <use x="63.378906" xlink:href="#DejaVuSans-69"/>
       <use x="91.162109" xlink:href="#DejaVuSans-64"/>
       <use x="154.638672" xlink:href="#DejaVuSans-5f"/>
       <use x="204.638672" xlink:href="#DejaVuSans-37"/>
       <use x="268.261719" xlink:href="#DejaVuSans-37"/>
       <use x="331.884766" xlink:href="#DejaVuSans-34"/>
       <use x="395.507812" xlink:href="#DejaVuSans-34"/>
       <use x="459.130859" xlink:href="#DejaVuSans-38"/>
      </g>
     </g>
    </g>
    <g id="xtick_18">
     <g id="line2d_18">
      <g>
       <use style="stroke:#000000;stroke-width:0.8;" x="269.204" xlink:href="#ma8dad8fe57" y="82.675"/>
      </g>
     </g>
     <g id="text_18">
      <!-- uid_77447 -->
      <g transform="translate(270.776188 121.040938)rotate(-90)scale(0.06 -0.06)">
       <use xlink:href="#DejaVuSans-75"/>
       <use x="63.378906" xlink:href="#DejaVuSans-69"/>
       <use x="91.162109" xlink:href="#DejaVuSans-64"/>
       <use x="154.638672" xlink:href="#DejaVuSans-5f"/>
       <use x="204.638672" xlink:href="#DejaVuSans-37"/>
       <use x="268.261719" xlink:href="#DejaVuSans-37"/>
       <use x="331.884766" xlink:href="#DejaVuSans-34"/>
       <use x="395.507812" xlink:href="#DejaVuSans-34"/>
       <use x="459.130859" xlink:href="#DejaVuSans-37"/>
      </g>
     </g>
    </g>
    <g id="xtick_19">
     <g id="line2d_19">
      <g>
       <use style="stroke:#000000;stroke-width:0.8;" x="282.6648" xlink:href="#ma8dad8fe57" y="82.675"/>
      </g>
     </g>
     <g id="text_19">
      <!-- uid_77446 -->
      <defs>
       <path d="M 33.015625 40.375 
Q 26.375 40.375 22.484375 35.828125 
Q 18.609375 31.296875 18.609375 23.390625 
Q 18.609375 15.53125 22.484375 10.953125 
Q 26.375 6.390625 33.015625 6.390625 
Q 39.65625 6.390625 43.53125 10.953125 
Q 47.40625 15.53125 47.40625 23.390625 
Q 47.40625 31.296875 43.53125 35.828125 
Q 39.65625 40.375 33.015625 40.375 
z
M 52.59375 71.296875 
L 52.59375 62.3125 
Q 48.875 64.0625 45.09375 64.984375 
Q 41.3125 65.921875 37.59375 65.921875 
Q 27.828125 65.921875 22.671875 59.328125 
Q 17.53125 52.734375 16.796875 39.40625 
Q 19.671875 43.65625 24.015625 45.921875 
Q 28.375 48.1875 33.59375 48.1875 
Q 44.578125 48.1875 50.953125 41.515625 
Q 57.328125 34.859375 57.328125 23.390625 
Q 57.328125 12.15625 50.6875 5.359375 
Q 44.046875 -1.421875 33.015625 -1.421875 
Q 20.359375 -1.421875 13.671875 8.265625 
Q 6.984375 17.96875 6.984375 36.375 
Q 6.984375 53.65625 15.1875 63.9375 
Q 23.390625 74.21875 37.203125 74.21875 
Q 40.921875 74.21875 44.703125 73.484375 
Q 48.484375 72.75 52.59375 71.296875 
z
" id="DejaVuSans-36"/>
      </defs>
      <g transform="translate(284.236988 121.040938)rotate(-90)scale(0.06 -0.06)">
       <use xlink:href="#DejaVuSans-75"/>
       <use x="63.378906" xlink:href="#DejaVuSans-69"/>
       <use x="91.162109" xlink:href="#DejaVuSans-64"/>
       <use x="154.638672" xlink:href="#DejaVuSans-5f"/>
       <use x="204.638672" xlink:href="#DejaVuSans-37"/>
       <use x="268.261719" xlink:href="#DejaVuSans-37"/>
       <use x="331.884766" xlink:href="#DejaVuSans-34"/>
       <use x="395.507812" xlink:href="#DejaVuSans-34"/>
       <use x="459.130859" xlink:href="#DejaVuSans-36"/>
      </g>
     </g>
    </g>
    <g id="xtick_20">
     <g id="line2d_20">
      <g>
       <use style="stroke:#000000;stroke-width:0.8;" x="296.1256" xlink:href="#ma8dad8fe57" y="82.675"/>
      </g>
     </g>
     <g id="text_20">
      <!-- uid_77436 -->
      <g transform="translate(297.697788 121.040938)rotate(-90)scale(0.06 -0.06)">
       <use xlink:href="#DejaVuSans-75"/>
       <use x="63.378906" xlink:href="#DejaVuSans-69"/>
       <use x="91.162109" xlink:href="#DejaVuSans-64"/>
       <use x="154.638672" xlink:href="#DejaVuSans-5f"/>
       <use x="204.638672" xlink:href="#DejaVuSans-37"/>
       <use x="268.261719" xlink:href="#DejaVuSans-37"/>
       <use x="331.884766" xlink:href="#DejaVuSans-34"/>
       <use x="395.507812" xlink:href="#DejaVuSans-33"/>
       <use x="459.130859" xlink:href="#DejaVuSans-36"/>
      </g>
     </g>
    </g>
    <g id="xtick_21">
     <g id="line2d_21">
      <g>
       <use style="stroke:#000000;stroke-width:0.8;" x="309.5864" xlink:href="#ma8dad8fe57" y="82.675"/>
      </g>
     </g>
     <g id="text_21">
      <!-- uid_77435 -->
      <g transform="translate(311.158588 121.040938)rotate(-90)scale(0.06 -0.06)">
       <use xlink:href="#DejaVuSans-75"/>
       <use x="63.378906" xlink:href="#DejaVuSans-69"/>
       <use x="91.162109" xlink:href="#DejaVuSans-64"/>
       <use x="154.638672" xlink:href="#DejaVuSans-5f"/>
       <use x="204.638672" xlink:href="#DejaVuSans-37"/>
       <use x="268.261719" xlink:href="#DejaVuSans-37"/>
       <use x="331.884766" xlink:href="#DejaVuSans-34"/>
       <use x="395.507812" xlink:href="#DejaVuSans-33"/>
       <use x="459.130859" xlink:href="#DejaVuSans-35"/>
      </g>
     </g>
    </g>
    <g id="xtick_22">
     <g id="line2d_22">
      <g>
       <use style="stroke:#000000;stroke-width:0.8;" x="323.0472" xlink:href="#ma8dad8fe57" y="82.675"/>
      </g>
     </g>
     <g id="text_22">
      <!-- uid_77434 -->
      <g transform="translate(324.619388 121.040938)rotate(-90)scale(0.06 -0.06)">
       <use xlink:href="#DejaVuSans-75"/>
       <use x="63.378906" xlink:href="#DejaVuSans-69"/>
       <use x="91.162109" xlink:href="#DejaVuSans-64"/>
       <use x="154.638672" xlink:href="#DejaVuSans-5f"/>
       <use x="204.638672" xlink:href="#DejaVuSans-37"/>
       <use x="268.261719" xlink:href="#DejaVuSans-37"/>
       <use x="331.884766" xlink:href="#DejaVuSans-34"/>
       <use x="395.507812" xlink:href="#DejaVuSans-33"/>
       <use x="459.130859" xlink:href="#DejaVuSans-34"/>
      </g>
     </g>
    </g>
    <g id="xtick_23">
     <g id="line2d_23">
      <g>
       <use style="stroke:#000000;stroke-width:0.8;" x="336.508" xlink:href="#ma8dad8fe57" y="82.675"/>
      </g>
     </g>
     <g id="text_23">
      <!-- uid_77433 -->
      <g transform="translate(338.080188 121.040938)rotate(-90)scale(0.06 -0.06)">
       <use xlink:href="#DejaVuSans-75"/>
       <use x="63.378906" xlink:href="#DejaVuSans-69"/>
       <use x="91.162109" xlink:href="#DejaVuSans-64"/>
       <use x="154.638672" xlink:href="#DejaVuSans-5f"/>
       <use x="204.638672" xlink:href="#DejaVuSans-37"/>
       <use x="268.261719" xlink:href="#DejaVuSans-37"/>
       <use x="331.884766" xlink:href="#DejaVuSans-34"/>
       <use x="395.507812" xlink:href="#DejaVuSans-33"/>
       <use x="459.130859" xlink:href="#DejaVuSans-33"/>
      </g>
     </g>
    </g>
    <g id="xtick_24">
     <g id="line2d_24">
      <g>
       <use style="stroke:#000000;stroke-width:0.8;" x="349.9688" xlink:href="#ma8dad8fe57" y="82.675"/>
      </g>
     </g>
     <g id="text_24">
      <!-- uid_77456 -->
      <g transform="translate(351.540988 121.040938)rotate(-90)scale(0.06 -0.06)">
       <use xlink:href="#DejaVuSans-75"/>
       <use x="63.378906" xlink:href="#DejaVuSans-69"/>
       <use x="91.162109" xlink:href="#DejaVuSans-64"/>
       <use x="154.638672" xlink:href="#DejaVuSans-5f"/>
       <use x="204.638672" xlink:href="#DejaVuSans-37"/>
       <use x="268.261719" xlink:href="#DejaVuSans-37"/>
       <use x="331.884766" xlink:href="#DejaVuSans-34"/>
       <use x="395.507812" xlink:href="#DejaVuSans-35"/>
       <use x="459.130859" xlink:href="#DejaVuSans-36"/>
      </g>
     </g>
    </g>
   </g>
   <g id="matplotlib.axis_2">
    <g id="ytick_1">
     <g id="line2d_25">
      <defs>
       <path d="M 0 0 
L -3.5 0 
" id="m8e4a1af8a1" style="stroke:#000000;stroke-width:0.8;"/>
      </defs>
      <g>
       <use style="stroke:#000000;stroke-width:0.8;" x="33.64" xlink:href="#m8e4a1af8a1" y="82.675"/>
      </g>
     </g>
     <g id="text_25">
      <!-- 0.0 -->
      <defs>
       <path d="M 10.6875 12.40625 
L 21 12.40625 
L 21 0 
L 10.6875 0 
z
" id="DejaVuSans-2e"/>
      </defs>
      <g transform="translate(10.736875 86.474219)scale(0.1 -0.1)">
       <use xlink:href="#DejaVuSans-30"/>
       <use x="63.623047" xlink:href="#DejaVuSans-2e"/>
       <use x="95.410156" xlink:href="#DejaVuSans-30"/>
      </g>
     </g>
    </g>
    <g id="ytick_2">
     <g id="line2d_26">
      <g>
       <use style="stroke:#000000;stroke-width:0.8;" x="33.64" xlink:href="#m8e4a1af8a1" y="48.7175"/>
      </g>
     </g>
     <g id="text_26">
      <!-- 0.5 -->
      <g transform="translate(10.736875 52.516719)scale(0.1 -0.1)">
       <use xlink:href="#DejaVuSans-30"/>
       <use x="63.623047" xlink:href="#DejaVuSans-2e"/>
       <use x="95.410156" xlink:href="#DejaVuSans-35"/>
      </g>
     </g>
    </g>
    <g id="ytick_3">
     <g id="line2d_27">
      <g>
       <use style="stroke:#000000;stroke-width:0.8;" x="33.64" xlink:href="#m8e4a1af8a1" y="14.76"/>
      </g>
     </g>
     <g id="text_27">
      <!-- 1.0 -->
      <g transform="translate(10.736875 18.559219)scale(0.1 -0.1)">
       <use xlink:href="#DejaVuSans-31"/>
       <use x="63.623047" xlink:href="#DejaVuSans-2e"/>
       <use x="95.410156" xlink:href="#DejaVuSans-30"/>
      </g>
     </g>
    </g>
   </g>
   <g id="line2d_28">
    <path clip-path="url(#pee872f5415)" d="M 33.64 82.675 
L 356.6992 82.675 
" style="fill:none;stroke:#000000;stroke-linecap:square;stroke-width:2;"/>
   </g>
   <g id="patch_3">
    <path d="M 33.64 82.675 
L 33.64 14.76 
" style="fill:none;stroke:#000000;stroke-linecap:square;stroke-linejoin:miter;stroke-width:0.8;"/>
   </g>
  </g>
  <g id="axes_2">
   <g id="patch_4">
    <path clip-path="url(#p95850dbfbd)" d="M 33.64 134.765 
L 78.509333 134.765 
L 78.509333 202.68 
L 33.64 202.68 
z
" style="fill:#b1a1e6;stroke:#b1a1e6;stroke-linejoin:miter;"/>
   </g>
   <g id="patch_5">
    <path clip-path="url(#p95850dbfbd)" d="M 168.248 134.765 
L 213.117333 134.765 
L 213.117333 202.68 
L 168.248 202.68 
z
" style="fill:#b3cdd0;stroke:#b3cdd0;stroke-linejoin:miter;"/>
   </g>
   <g id="patch_6">
    <path clip-path="url(#p95850dbfbd)" d="M 302.856 134.765 
L 347.725333 134.765 
L 347.725333 202.68 
L 302.856 202.68 
z
" style="fill:#be8481;stroke:#be8481;stroke-linejoin:miter;"/>
   </g>
   <g id="patch_7">
    <path clip-path="url(#p95850dbfbd)" d="M 437.464 134.765 
L 482.333333 134.765 
L 482.333333 202.68 
L 437.464 202.68 
z
" style="fill:#d88baf;stroke:#d88baf;stroke-linejoin:miter;"/>
   </g>
   <g id="patch_8">
    <path clip-path="url(#p95850dbfbd)" d="M 572.072 134.765 
L 616.941333 134.765 
L 616.941333 202.68 
L 572.072 202.68 
z
" style="fill:#9df1b8;stroke:#9df1b8;stroke-linejoin:miter;"/>
   </g>
   <g id="text_28">
    <!-- C15-C15dq-C15d... -->
    <defs>
     <path d="M 64.40625 67.28125 
L 64.40625 56.890625 
Q 59.421875 61.53125 53.78125 63.8125 
Q 48.140625 66.109375 41.796875 66.109375 
Q 29.296875 66.109375 22.65625 58.46875 
Q 16.015625 50.828125 16.015625 36.375 
Q 16.015625 21.96875 22.65625 14.328125 
Q 29.296875 6.6875 41.796875 6.6875 
Q 48.140625 6.6875 53.78125 8.984375 
Q 59.421875 11.28125 64.40625 15.921875 
L 64.40625 5.609375 
Q 59.234375 2.09375 53.4375 0.328125 
Q 47.65625 -1.421875 41.21875 -1.421875 
Q 24.65625 -1.421875 15.125 8.703125 
Q 5.609375 18.84375 5.609375 36.375 
Q 5.609375 53.953125 15.125 64.078125 
Q 24.65625 74.21875 41.21875 74.21875 
Q 47.75 74.21875 53.53125 72.484375 
Q 59.328125 70.75 64.40625 67.28125 
z
" id="DejaVuSans-43"/>
     <path d="M 4.890625 31.390625 
L 31.203125 31.390625 
L 31.203125 23.390625 
L 4.890625 23.390625 
z
" id="DejaVuSans-2d"/>
     <path d="M 14.796875 27.296875 
Q 14.796875 17.390625 18.875 11.75 
Q 22.953125 6.109375 30.078125 6.109375 
Q 37.203125 6.109375 41.296875 11.75 
Q 45.40625 17.390625 45.40625 27.296875 
Q 45.40625 37.203125 41.296875 42.84375 
Q 37.203125 48.484375 30.078125 48.484375 
Q 22.953125 48.484375 18.875 42.84375 
Q 14.796875 37.203125 14.796875 27.296875 
z
M 45.40625 8.203125 
Q 42.578125 3.328125 38.25 0.953125 
Q 33.9375 -1.421875 27.875 -1.421875 
Q 17.96875 -1.421875 11.734375 6.484375 
Q 5.515625 14.40625 5.515625 27.296875 
Q 5.515625 40.1875 11.734375 48.09375 
Q 17.96875 56 27.875 56 
Q 33.9375 56 38.25 53.625 
Q 42.578125 51.265625 45.40625 46.390625 
L 45.40625 54.6875 
L 54.390625 54.6875 
L 54.390625 -20.796875 
L 45.40625 -20.796875 
z
" id="DejaVuSans-71"/>
    </defs>
    <g transform="translate(87.4832 170.93)scale(0.08 -0.08)">
     <use xlink:href="#DejaVuSans-43"/>
     <use x="69.824219" xlink:href="#DejaVuSans-31"/>
     <use x="133.447266" xlink:href="#DejaVuSans-35"/>
     <use x="197.070312" xlink:href="#DejaVuSans-2d"/>
     <use x="233.154297" xlink:href="#DejaVuSans-43"/>
     <use x="302.978516" xlink:href="#DejaVuSans-31"/>
     <use x="366.601562" xlink:href="#DejaVuSans-35"/>
     <use x="430.224609" xlink:href="#DejaVuSans-64"/>
     <use x="493.701172" xlink:href="#DejaVuSans-71"/>
     <use x="557.177734" xlink:href="#DejaVuSans-2d"/>
     <use x="593.261719" xlink:href="#DejaVuSans-43"/>
     <use x="663.085938" xlink:href="#DejaVuSans-31"/>
     <use x="726.708984" xlink:href="#DejaVuSans-35"/>
     <use x="790.332031" xlink:href="#DejaVuSans-64"/>
     <use x="853.808594" xlink:href="#DejaVuSans-2e"/>
     <use x="885.595703" xlink:href="#DejaVuSans-2e"/>
     <use x="917.382812" xlink:href="#DejaVuSans-2e"/>
    </g>
   </g>
   <g id="text_29">
    <!-- C42a/C1-C42.2-... -->
    <defs>
     <path d="M 34.28125 27.484375 
Q 23.390625 27.484375 19.1875 25 
Q 14.984375 22.515625 14.984375 16.5 
Q 14.984375 11.71875 18.140625 8.90625 
Q 21.296875 6.109375 26.703125 6.109375 
Q 34.1875 6.109375 38.703125 11.40625 
Q 43.21875 16.703125 43.21875 25.484375 
L 43.21875 27.484375 
z
M 52.203125 31.203125 
L 52.203125 0 
L 43.21875 0 
L 43.21875 8.296875 
Q 40.140625 3.328125 35.546875 0.953125 
Q 30.953125 -1.421875 24.3125 -1.421875 
Q 15.921875 -1.421875 10.953125 3.296875 
Q 6 8.015625 6 15.921875 
Q 6 25.140625 12.171875 29.828125 
Q 18.359375 34.515625 30.609375 34.515625 
L 43.21875 34.515625 
L 43.21875 35.40625 
Q 43.21875 41.609375 39.140625 45 
Q 35.0625 48.390625 27.6875 48.390625 
Q 23 48.390625 18.546875 47.265625 
Q 14.109375 46.140625 10.015625 43.890625 
L 10.015625 52.203125 
Q 14.9375 54.109375 19.578125 55.046875 
Q 24.21875 56 28.609375 56 
Q 40.484375 56 46.34375 49.84375 
Q 52.203125 43.703125 52.203125 31.203125 
z
" id="DejaVuSans-61"/>
     <path d="M 25.390625 72.90625 
L 33.6875 72.90625 
L 8.296875 -9.28125 
L 0 -9.28125 
z
" id="DejaVuSans-2f"/>
    </defs>
    <g transform="translate(222.0912 170.93)scale(0.08 -0.08)">
     <use xlink:href="#DejaVuSans-43"/>
     <use x="69.824219" xlink:href="#DejaVuSans-34"/>
     <use x="133.447266" xlink:href="#DejaVuSans-32"/>
     <use x="197.070312" xlink:href="#DejaVuSans-61"/>
     <use x="258.349609" xlink:href="#DejaVuSans-2f"/>
     <use x="292.041016" xlink:href="#DejaVuSans-43"/>
     <use x="361.865234" xlink:href="#DejaVuSans-31"/>
     <use x="425.488281" xlink:href="#DejaVuSans-2d"/>
     <use x="461.572266" xlink:href="#DejaVuSans-43"/>
     <use x="531.396484" xlink:href="#DejaVuSans-34"/>
     <use x="595.019531" xlink:href="#DejaVuSans-32"/>
     <use x="658.642578" xlink:href="#DejaVuSans-2e"/>
     <use x="690.429688" xlink:href="#DejaVuSans-32"/>
     <use x="754.052734" xlink:href="#DejaVuSans-2d"/>
     <use x="790.136719" xlink:href="#DejaVuSans-2e"/>
     <use x="821.923828" xlink:href="#DejaVuSans-2e"/>
     <use x="853.710938" xlink:href="#DejaVuSans-2e"/>
    </g>
   </g>
   <g id="text_30">
    <!-- C50b/C50p-C3-C... -->
    <defs>
     <path d="M 48.6875 27.296875 
Q 48.6875 37.203125 44.609375 42.84375 
Q 40.53125 48.484375 33.40625 48.484375 
Q 26.265625 48.484375 22.1875 42.84375 
Q 18.109375 37.203125 18.109375 27.296875 
Q 18.109375 17.390625 22.1875 11.75 
Q 26.265625 6.109375 33.40625 6.109375 
Q 40.53125 6.109375 44.609375 11.75 
Q 48.6875 17.390625 48.6875 27.296875 
z
M 18.109375 46.390625 
Q 20.953125 51.265625 25.265625 53.625 
Q 29.59375 56 35.59375 56 
Q 45.5625 56 51.78125 48.09375 
Q 58.015625 40.1875 58.015625 27.296875 
Q 58.015625 14.40625 51.78125 6.484375 
Q 45.5625 -1.421875 35.59375 -1.421875 
Q 29.59375 -1.421875 25.265625 0.953125 
Q 20.953125 3.328125 18.109375 8.203125 
L 18.109375 0 
L 9.078125 0 
L 9.078125 75.984375 
L 18.109375 75.984375 
z
" id="DejaVuSans-62"/>
     <path d="M 18.109375 8.203125 
L 18.109375 -20.796875 
L 9.078125 -20.796875 
L 9.078125 54.6875 
L 18.109375 54.6875 
L 18.109375 46.390625 
Q 20.953125 51.265625 25.265625 53.625 
Q 29.59375 56 35.59375 56 
Q 45.5625 56 51.78125 48.09375 
Q 58.015625 40.1875 58.015625 27.296875 
Q 58.015625 14.40625 51.78125 6.484375 
Q 45.5625 -1.421875 35.59375 -1.421875 
Q 29.59375 -1.421875 25.265625 0.953125 
Q 20.953125 3.328125 18.109375 8.203125 
z
M 48.6875 27.296875 
Q 48.6875 37.203125 44.609375 42.84375 
Q 40.53125 48.484375 33.40625 48.484375 
Q 26.265625 48.484375 22.1875 42.84375 
Q 18.109375 37.203125 18.109375 27.296875 
Q 18.109375 17.390625 22.1875 11.75 
Q 26.265625 6.109375 33.40625 6.109375 
Q 40.53125 6.109375 44.609375 11.75 
Q 48.6875 17.390625 48.6875 27.296875 
z
" id="DejaVuSans-70"/>
    </defs>
    <g transform="translate(356.6992 170.93)scale(0.08 -0.08)">
     <use xlink:href="#DejaVuSans-43"/>
     <use x="69.824219" xlink:href="#DejaVuSans-35"/>
     <use x="133.447266" xlink:href="#DejaVuSans-30"/>
     <use x="197.070312" xlink:href="#DejaVuSans-62"/>
     <use x="260.546875" xlink:href="#DejaVuSans-2f"/>
     <use x="294.238281" xlink:href="#DejaVuSans-43"/>
     <use x="364.0625" xlink:href="#DejaVuSans-35"/>
     <use x="427.685547" xlink:href="#DejaVuSans-30"/>
     <use x="491.308594" xlink:href="#DejaVuSans-70"/>
     <use x="554.785156" xlink:href="#DejaVuSans-2d"/>
     <use x="590.869141" xlink:href="#DejaVuSans-43"/>
     <use x="660.693359" xlink:href="#DejaVuSans-33"/>
     <use x="724.316406" xlink:href="#DejaVuSans-2d"/>
     <use x="760.400391" xlink:href="#DejaVuSans-43"/>
     <use x="830.224609" xlink:href="#DejaVuSans-2e"/>
     <use x="862.011719" xlink:href="#DejaVuSans-2e"/>
     <use x="893.798828" xlink:href="#DejaVuSans-2e"/>
    </g>
   </g>
   <g id="text_31">
    <!-- C50b-C50p-C3 -->
    <g transform="translate(491.3072 170.93)scale(0.08 -0.08)">
     <use xlink:href="#DejaVuSans-43"/>
     <use x="69.824219" xlink:href="#DejaVuSans-35"/>
     <use x="133.447266" xlink:href="#DejaVuSans-30"/>
     <use x="197.070312" xlink:href="#DejaVuSans-62"/>
     <use x="260.546875" xlink:href="#DejaVuSans-2d"/>
     <use x="296.630859" xlink:href="#DejaVuSans-43"/>
     <use x="366.455078" xlink:href="#DejaVuSans-35"/>
     <use x="430.078125" xlink:href="#DejaVuSans-30"/>
     <use x="493.701172" xlink:href="#DejaVuSans-70"/>
     <use x="557.177734" xlink:href="#DejaVuSans-2d"/>
     <use x="593.261719" xlink:href="#DejaVuSans-43"/>
     <use x="663.085938" xlink:href="#DejaVuSans-33"/>
    </g>
   </g>
   <g id="text_32">
    <!-- C42.2/C1-C1b-C... -->
    <g transform="translate(625.9152 170.93)scale(0.08 -0.08)">
     <use xlink:href="#DejaVuSans-43"/>
     <use x="69.824219" xlink:href="#DejaVuSans-34"/>
     <use x="133.447266" xlink:href="#DejaVuSans-32"/>
     <use x="197.070312" xlink:href="#DejaVuSans-2e"/>
     <use x="228.857422" xlink:href="#DejaVuSans-32"/>
     <use x="292.480469" xlink:href="#DejaVuSans-2f"/>
     <use x="326.171875" xlink:href="#DejaVuSans-43"/>
     <use x="395.996094" xlink:href="#DejaVuSans-31"/>
     <use x="459.619141" xlink:href="#DejaVuSans-2d"/>
     <use x="495.703125" xlink:href="#DejaVuSans-43"/>
     <use x="565.527344" xlink:href="#DejaVuSans-31"/>
     <use x="629.150391" xlink:href="#DejaVuSans-62"/>
     <use x="692.626953" xlink:href="#DejaVuSans-2d"/>
     <use x="728.710938" xlink:href="#DejaVuSans-43"/>
     <use x="798.535156" xlink:href="#DejaVuSans-2e"/>
     <use x="830.322266" xlink:href="#DejaVuSans-2e"/>
     <use x="862.109375" xlink:href="#DejaVuSans-2e"/>
    </g>
   </g>
  </g>
 </g>
 <defs>
  <clipPath id="pee872f5415">
   <rect height="67.915" width="673.04" x="33.64" y="14.76"/>
  </clipPath>
  <clipPath id="p95850dbfbd">
   <rect height="67.915" width="673.04" x="33.64" y="134.765"/>
  </clipPath>
 </defs>
</svg>
